<mxfile host="app.diagrams.net" modified="2023-11-14T13:39:18.914Z" agent="Mozilla/5.0 (Windows NT 10.0; Win64; x64) AppleWebKit/537.36 (KHTML, like Gecko) Chrome/119.0.0.0 Safari/537.36" etag="yLqT2OpTGFp_DS404xcG" version="22.1.0" type="device">
  <diagram id="Hc2JgSTKJ0nhyATQd8Xm" name="use-case">
    <mxGraphModel dx="573" dy="322" grid="1" gridSize="10" guides="1" tooltips="1" connect="1" arrows="1" fold="1" page="1" pageScale="1" pageWidth="827" pageHeight="1169" math="0" shadow="0">
      <root>
        <mxCell id="0" />
        <mxCell id="1" parent="0" />
        <mxCell id="n6hdh-DsInmd9NyM3Zqy-1" value="Admin/Teacher" style="shape=umlActor;verticalLabelPosition=bottom;verticalAlign=top;html=1;" parent="1" vertex="1">
          <mxGeometry x="40" y="290" width="30" height="60" as="geometry" />
        </mxCell>
        <mxCell id="n6hdh-DsInmd9NyM3Zqy-3" value="Viewing the list of Student" style="shape=umlFrame;whiteSpace=wrap;html=1;pointerEvents=0;width=150;height=30;" parent="1" vertex="1">
          <mxGeometry x="160" y="40" width="660" height="560" as="geometry" />
        </mxCell>
        <mxCell id="n6hdh-DsInmd9NyM3Zqy-4" value="View the list of student" style="ellipse;whiteSpace=wrap;html=1;" parent="1" vertex="1">
          <mxGeometry x="170" y="270" width="140" height="70" as="geometry" />
        </mxCell>
        <mxCell id="n6hdh-DsInmd9NyM3Zqy-6" value="Search student&amp;nbsp;" style="ellipse;whiteSpace=wrap;html=1;" parent="1" vertex="1">
          <mxGeometry x="450" y="430" width="140" height="70" as="geometry" />
        </mxCell>
        <mxCell id="n6hdh-DsInmd9NyM3Zqy-7" value="Login" style="ellipse;whiteSpace=wrap;html=1;" parent="1" vertex="1">
          <mxGeometry x="440" y="125" width="140" height="70" as="geometry" />
        </mxCell>
        <mxCell id="n6hdh-DsInmd9NyM3Zqy-11" value="Login by username and password&amp;nbsp;" style="ellipse;whiteSpace=wrap;html=1;" parent="1" vertex="1">
          <mxGeometry x="650" y="70" width="140" height="70" as="geometry" />
        </mxCell>
        <mxCell id="n6hdh-DsInmd9NyM3Zqy-14" value="Login by email" style="ellipse;whiteSpace=wrap;html=1;" parent="1" vertex="1">
          <mxGeometry x="670" y="160" width="140" height="70" as="geometry" />
        </mxCell>
        <mxCell id="n6hdh-DsInmd9NyM3Zqy-19" value="&amp;lt;&amp;lt;extend&amp;gt;&amp;gt;" style="html=1;verticalAlign=bottom;endArrow=open;dashed=1;endSize=8;curved=0;rounded=0;exitX=0;exitY=0.5;exitDx=0;exitDy=0;entryX=1;entryY=1;entryDx=0;entryDy=0;" parent="1" source="n6hdh-DsInmd9NyM3Zqy-6" target="n6hdh-DsInmd9NyM3Zqy-4" edge="1">
          <mxGeometry x="-0.1751" y="-25" relative="1" as="geometry">
            <mxPoint x="414" y="270" as="sourcePoint" />
            <mxPoint x="284" y="210" as="targetPoint" />
            <mxPoint as="offset" />
          </mxGeometry>
        </mxCell>
        <mxCell id="n6hdh-DsInmd9NyM3Zqy-20" value="&amp;lt;&amp;lt;include&amp;gt;&amp;gt;" style="html=1;verticalAlign=bottom;endArrow=open;dashed=1;endSize=8;curved=0;rounded=0;exitX=1;exitY=0;exitDx=0;exitDy=0;entryX=0;entryY=1;entryDx=0;entryDy=0;" parent="1" source="n6hdh-DsInmd9NyM3Zqy-4" target="n6hdh-DsInmd9NyM3Zqy-7" edge="1">
          <mxGeometry x="0.0183" y="13" relative="1" as="geometry">
            <mxPoint x="414" y="200" as="sourcePoint" />
            <mxPoint x="284" y="240" as="targetPoint" />
            <mxPoint x="-1" as="offset" />
          </mxGeometry>
        </mxCell>
        <mxCell id="n6hdh-DsInmd9NyM3Zqy-21" value="" style="endArrow=block;endSize=16;endFill=0;html=1;rounded=0;exitX=0.016;exitY=0.639;exitDx=0;exitDy=0;exitPerimeter=0;" parent="1" source="n6hdh-DsInmd9NyM3Zqy-14" target="n6hdh-DsInmd9NyM3Zqy-7" edge="1">
          <mxGeometry y="40" width="160" relative="1" as="geometry">
            <mxPoint x="570" y="320" as="sourcePoint" />
            <mxPoint x="730" y="320" as="targetPoint" />
            <mxPoint as="offset" />
          </mxGeometry>
        </mxCell>
        <mxCell id="n6hdh-DsInmd9NyM3Zqy-22" value="" style="endArrow=block;endSize=16;endFill=0;html=1;rounded=0;entryX=1;entryY=0;entryDx=0;entryDy=0;exitX=0;exitY=0.5;exitDx=0;exitDy=0;" parent="1" source="n6hdh-DsInmd9NyM3Zqy-11" target="n6hdh-DsInmd9NyM3Zqy-7" edge="1">
          <mxGeometry y="40" width="160" relative="1" as="geometry">
            <mxPoint x="619.76" y="195.27" as="sourcePoint" />
            <mxPoint x="577.76" y="215.27" as="targetPoint" />
            <mxPoint as="offset" />
          </mxGeometry>
        </mxCell>
        <mxCell id="pd9W0Ry6EW7057hykL7I-1" value="" style="endArrow=none;html=1;rounded=0;exitX=0;exitY=0.5;exitDx=0;exitDy=0;entryX=1;entryY=0.3333333333333333;entryDx=0;entryDy=0;entryPerimeter=0;" parent="1" source="n6hdh-DsInmd9NyM3Zqy-4" target="n6hdh-DsInmd9NyM3Zqy-1" edge="1">
          <mxGeometry width="50" height="50" relative="1" as="geometry">
            <mxPoint x="90" y="330" as="sourcePoint" />
            <mxPoint x="140" y="280" as="targetPoint" />
          </mxGeometry>
        </mxCell>
      </root>
    </mxGraphModel>
  </diagram>
</mxfile>
